<svg width="200" height="200" viewBox="0 0 200 200" fill="none" xmlns="http://www.w3.org/2000/svg">
  <defs>
    <linearGradient id="avatar-grad" x1="0%" y1="0%" x2="100%" y2="100%">
      <stop offset="0%" stop-color="#ff3e72" />
      <stop offset="100%" stop-color="#fd9594" />
    </linearGradient>
  </defs>
  <circle cx="100" cy="100" r="100" fill="url(#avatar-grad)" />
  <path d="M100 55 C125 55 150 75 150 110 C150 148 105 165 100 165 C95 165 50 148 50 110 C50 75 75 55 100 55 Z" fill="#f1d7dc" />
  <path d="M100 55 C110 55 125 70 125 95 C125 128 102 148 100 148 Z" fill="#fd9594" opacity="0.6" />
  <path d="M100 55 C95 35 78 30 70 35 C62 40 70 50 100 55 Z" fill="#aa7279" />
</svg>
